<!-- icon666.com - MILLIONS vector ICONS FREE --><svg version="1.1" id="Capa_1" xmlns="http://www.w3.org/2000/svg" xmlns:xlink="http://www.w3.org/1999/xlink" x="0px" y="0px" viewBox="0 0 512 512" style="enable-background:new 0 0 512 512;" xml:space="preserve"><path style="fill: rgb(37, 72, 142);" d="M268.108,455.859c-0.119,0-0.238-0.001-0.358-0.004c-47.839-1.047-92.646-20.469-126.168-54.686 c-6.231-6.36-6.152-16.56,0.177-22.822l236.126-233.689c6.329-6.264,16.527-6.237,22.823,0.059 c33.366,33.37,52.309,77.705,53.341,124.838c0.173,7.893-5.377,14.76-13.133,16.245c-78.776,15.081-141.839,78.144-156.92,156.921 C282.533,450.359,275.852,455.859,268.108,455.859z" fill="#EBF0FA"></path><path style="fill: rgb(220, 217, 208);" d="M153.14,406.024c-0.042,0-0.083,0-0.125,0c-4.306-0.033-8.42-1.781-11.432-4.857 c-33.574-34.271-52.064-79.571-52.064-127.554c0-100.516,81.775-182.292,182.291-182.292c48.692,0,94.469,18.962,128.899,53.394 c3.044,3.045,4.749,7.177,4.738,11.483c-0.012,4.306-1.738,8.428-4.798,11.457L164.52,401.345 C161.49,404.345,157.4,406.024,153.14,406.024z" fill="#FFD23C"></path><path style="fill: rgb(174, 170, 163);" d="M271.813,91.323V295.16l128.834-127.504c3.06-3.029,4.787-7.151,4.798-11.457 c0.012-4.305-1.693-8.437-4.738-11.483C366.279,110.286,320.503,91.324,271.813,91.323z" fill="#FFA50A"></path><path style="fill: rgb(20, 44, 118);" d="M377.885,144.657L271.813,249.634v205.781c6.087-1.434,10.96-6.31,12.182-12.694 c15.081-78.777,78.144-141.84,156.92-156.921c7.755-1.485,13.306-8.351,13.133-16.245c-1.032-47.133-19.976-91.468-53.341-124.838 C394.412,138.421,384.214,138.394,377.885,144.657z" fill="#CDD2E1"></path><path style="fill: rgb(1, 16, 55);" d="M57.771,503.831c-4.141,0-8.282-1.58-11.44-4.74c-6.319-6.317-6.319-16.562,0-22.881L474.408,48.134 c6.317-6.317,16.562-6.317,22.881,0s6.319,16.562,0,22.881L69.211,499.093C66.052,502.251,61.911,503.831,57.771,503.831z" fill="#636978"></path><path style="fill: rgb(174, 170, 163);" d="M271.813,68.679c-8.935,0-16.179-7.244-16.179-16.179V17.984c0-8.935,7.244-16.179,16.179-16.179 c8.935,0,16.179,7.244,16.179,16.179V52.5C287.993,61.435,280.748,68.679,271.813,68.679z" fill="#FFA50A"></path><g><path style="fill: rgb(220, 217, 208);" d="M161.27,98.303c-5.593,0-11.03-2.901-14.026-8.093l-17.258-29.892 c-4.468-7.739-1.816-17.634,5.922-22.101c7.738-4.471,17.634-1.817,22.101,5.922l17.258,29.892 c4.468,7.739,1.816,17.634-5.922,22.101C166.797,97.604,164.016,98.303,161.27,98.303z" fill="#FFD23C"></path><path style="fill: rgb(220, 217, 208);" d="M80.306,179.237c-2.745,0-5.527-0.699-8.075-2.171l-29.892-17.258 c-7.738-4.468-10.389-14.362-5.922-22.101c4.467-7.738,14.362-10.391,22.101-5.922l29.892,17.258 c7.738,4.468,10.389,14.362,5.922,22.101C91.336,176.333,85.897,179.237,80.306,179.237z" fill="#FFD23C"></path><path style="fill: rgb(220, 217, 208);" d="M50.695,289.789H16.179C7.244,289.789,0,282.545,0,273.61c0-8.935,7.244-16.179,16.179-16.179 h34.516c8.935,0,16.179,7.244,16.179,16.179C66.875,282.545,59.631,289.789,50.695,289.789z" fill="#FFD23C"></path><path style="fill: rgb(220, 217, 208);" d="M50.441,417.608c-5.593,0-11.03-2.901-14.026-8.093c-4.468-7.739-1.816-17.634,5.922-22.101 l29.892-17.258c7.739-4.471,17.633-1.818,22.101,5.922c4.468,7.739,1.816,17.634-5.922,22.101l-29.892,17.258 C55.968,416.908,53.185,417.608,50.441,417.608z" fill="#FFD23C"></path></g><path style="fill: rgb(174, 170, 163);" d="M382.354,98.307c-2.745,0-5.527-0.699-8.075-2.171c-7.739-4.469-10.39-14.363-5.922-22.101 l17.258-29.891c4.469-7.74,14.361-10.393,22.101-5.922c7.739,4.469,10.39,14.363,5.922,22.101L396.38,90.214 C393.384,95.405,387.945,98.307,382.354,98.307z" fill="#FFA50A"></path><g><path style="fill: rgb(20, 44, 118);" d="M392.619,397.659c8.463,0,16.571-7.441,16.179-16.179c-0.393-8.766-7.109-16.179-16.179-16.179 c-8.463,0-16.571,7.441-16.179,16.179C376.832,390.246,383.548,397.659,392.619,397.659L392.619,397.659z" fill="#CDD2E1"></path><path style="fill: rgb(20, 44, 118);" d="M361.339,490.421c8.463,0,16.571-7.441,16.179-16.179c-0.393-8.766-7.109-16.179-16.179-16.179 c-8.463,0-16.571,7.441-16.179,16.179C345.552,483.007,352.268,490.421,361.339,490.421L361.339,490.421z" fill="#CDD2E1"></path><path style="fill: rgb(20, 44, 118);" d="M488.617,377.525c8.463,0,16.571-7.441,16.179-16.179c-0.393-8.766-7.109-16.179-16.179-16.179 c-8.463,0-16.571,7.441-16.179,16.179C472.83,370.111,479.545,377.525,488.617,377.525L488.617,377.525z" fill="#CDD2E1"></path><path style="fill: rgb(20, 44, 118);" d="M480.706,484.308c8.463,0,16.571-7.441,16.179-16.179c-0.393-8.766-7.109-16.179-16.179-16.179 c-8.463,0-16.571,7.441-16.179,16.179C464.919,476.895,471.636,484.308,480.706,484.308L480.706,484.308z" fill="#CDD2E1"></path></g><path style="fill: rgb(37, 72, 142);" d="M244.848,510.195c8.463,0,16.571-7.441,16.179-16.179c-0.393-8.766-7.109-16.179-16.179-16.179 c-8.463,0-16.571,7.441-16.179,16.179C229.061,502.782,235.776,510.195,244.848,510.195L244.848,510.195z" fill="#EBF0FA"></path><path style="fill: rgb(20, 44, 118);" d="M495.807,261.393c8.463,0,16.571-7.441,16.179-16.179c-0.393-8.766-7.109-16.179-16.179-16.179 c-8.463,0-16.571,7.441-16.179,16.179C480.02,253.98,486.736,261.393,495.807,261.393L495.807,261.393z" fill="#CDD2E1"></path><path style="fill: rgb(220, 217, 208);" d="M271.813,1.804c-8.935,0-16.179,7.244-16.179,16.179V52.5c0,8.935,7.244,16.179,16.179,16.179V1.804z " fill="#FFD23C"></path><path style="" d="M474.408,48.134L271.813,250.729v45.762L497.289,71.015c6.319-6.317,6.319-16.562,0-22.881 C490.971,41.816,480.726,41.816,474.408,48.134z" fill="#414952"></path></svg>